# xmcd CD database file generated by Grip 3.0.5
# 
# Track frame offsets:
#       150
#       12260
#       21302
#       32585
#       44927
#       56087
#       66435
#       80750
#       94877
#       106992
#       119302
#       130810
#       143112
#       156112
#       167135
#       178457
#       190190
#       203495
#       215270
#       227607
#       239955
#       251420
#       264557
#       276507
#       287957
# 
# Disc length: 4007 seconds
# 
# Revision: 2
# Processed by: cddbd v1.4PL0 Copyright (c) Steve Scherf et al.
# Submitted via: Grip 3.0.5
# 
DISCID=850fa519
DTITLE=Various Artist - Smile And Jive - Kings Of Western Swing - Disc One
DYEAR=1997
DGENRE=Country
TTITLE0=Spade Cooley - Crazy Cause I Love You
TTITLE1=Bob Wills - Keep A Knockin' But You Can't Come In
TTITLE2=Sunshine Boys - She's A Rounder
TTITLE3=Bob Skyles and His Sky Rockets - Jive And Smile
TTITLE4=Modern Mountaneers - Everybody's Truckin'
TTITLE5=Smokey Wood and The Wood Chips - Keep On Truckin'
TTITLE6=Milton Brown and His Musical Brownies - Sweet Jennie Lee
TTITLE7=Cliff Bruner and His Boys - Jessie
TTITLE8=Jimmie Revard and His Oklahoma Playboys - Oh! Swing It
TTITLE9=Hi-Flyers - Beer Parlour Jive
TTITLE10=Sunshine Boys (Moon Mullican - voc.) - Pipe Liner Blues
TTITLE11=Spade Cooley - Detour
TTITLE12=Johnny Lee Wills and His Boys - Milk Cow Blues
TTITLE13=Ocle Stockard and His Wanderers - Nickel In The Kitty
TTITLE14=Leon 'Pappy' Selph and His Blue Ridge Playboys - Florene
TTITLE15=Swift Jewel Cowboys - Little Willie Green (From New Orleans)
TTITLE16=Rice Brothers Gang - Is It True What They Say About Dixie
TTITLE17=Hank Penny and His Radio Cowboys - Peach Tree Shuffle
TTITLE18=Jimmie Revard and His Oklahoma Playboy - It's A Long Way To Tipperary
TTITLE19=Milton Brown and His Musical Brownies - Right Or Wrong
TTITLE20=Hi-Flyers - Reno Street Blues
TTITLE21=Bob Wills and His Texas Playboys - What's The Matter At The Mill
TTITLE22=Sunshine Boys - Gonna Get Tight
TTITLE23=Shelly Lee Alley and The Alley Cats - Try It Once Again
TTITLE24=Hank Penny and His Radio Cowboys - Chill Tonic
EXTD=
EXTT0=
EXTT1=
EXTT2=
EXTT3=
EXTT4=
EXTT5=
EXTT6=
EXTT7=
EXTT8=
EXTT9=
EXTT10=
EXTT11=
EXTT12=
EXTT13=
EXTT14=
EXTT15=
EXTT16=
EXTT17=
EXTT18=
EXTT19=
EXTT20=
EXTT21=
EXTT22=
EXTT23=
EXTT24=
PLAYORDER=
